<svg data-v-423bf9ae="" xmlns="http://www.w3.org/2000/svg" viewBox="0 0 371.07967237527924 163" class="iconAbove"><!----><!----><defs data-v-423bf9ae=""><linearGradient data-v-423bf9ae="" gradientTransform="rotate(25)" id="f7697bba-7bec-4fb5-9da1-b17922677360" x1="0%" y1="0%" x2="100%" y2="0%"><stop data-v-423bf9ae="" offset="0%" style="stop-color: rgb(145, 41, 184); stop-opacity: 1;"></stop><stop data-v-423bf9ae="" offset="100%" style="stop-color: rgb(184, 41, 81); stop-opacity: 1;"></stop></linearGradient></defs><g data-v-423bf9ae="" id="86e97d4e-743a-470a-a9ca-346a7f1db30f" fill="url(#f7697bba-7bec-4fb5-9da1-b17922677360)" transform="matrix(5.718540668487549,0,0,5.718540668487549,-2.7922544479370117,84.19136047363281)"><path d="M2.72 13.52L0.49 3.75L2.32 3.75L3.74 10.00L5.01 5.45L5.01 5.45Q5.25 4.62 5.72 4.15L5.72 4.15L5.72 4.15Q6.19 3.68 7.03 3.75L7.03 3.75L8.81 10.00L9.83 5.43L9.83 5.43Q10.04 4.52 10.56 4.07L10.56 4.07L10.56 4.07Q11.07 3.63 12.04 3.75L12.04 3.75L9.81 13.52L8.04 13.52L6.24 7.21L4.48 13.52L2.72 13.52ZM17.96 10.72L17.96 10.72L17.96 10.72Q17.21 10.92 16.58 10.86L16.58 10.86L16.58 10.86Q15.96 10.81 15.56 10.56L15.56 10.56L15.56 10.56Q15.16 10.32 15.03 9.91L15.03 9.91L15.03 9.91Q14.90 9.49 15.11 8.97L15.11 8.97L15.11 8.97Q15.54 9.34 16.11 9.37L16.11 9.37L16.11 9.37Q16.69 9.41 17.22 9.35L17.22 9.35L17.22 9.35Q17.67 9.31 17.90 9.16L17.90 9.16L17.90 9.16Q18.13 9.00 18.19 8.80L18.19 8.80L18.19 8.80Q18.24 8.60 18.14 8.37L18.14 8.37L18.14 8.37Q18.05 8.15 17.83 7.97L17.83 7.97L17.83 7.97Q17.61 7.78 17.30 7.67L17.30 7.67L17.30 7.67Q16.98 7.56 16.60 7.57L16.60 7.57L16.60 7.57Q16.20 7.60 15.83 7.77L15.83 7.77L15.83 7.77Q15.47 7.94 15.19 8.23L15.19 8.23L15.19 8.23Q14.91 8.53 14.74 8.92L14.74 8.92L14.74 8.92Q14.57 9.31 14.56 9.79L14.56 9.79L14.56 9.79Q14.55 10.18 14.65 10.56L14.65 10.56L14.65 10.56Q14.76 10.93 14.97 11.25L14.97 11.25L14.97 11.25Q15.18 11.56 15.47 11.78L15.47 11.78L15.47 11.78Q15.76 12.00 16.14 12.05L16.14 12.05L16.14 12.05Q16.67 12.15 17.23 11.98L17.23 11.98L17.23 11.98Q17.79 11.82 18.23 11.37L18.23 11.37L19.70 12.08L19.70 12.08Q19.12 12.94 18.34 13.31L18.34 13.31L18.34 13.31Q17.56 13.68 16.55 13.68L16.55 13.68L16.55 13.68Q15.61 13.68 14.90 13.35L14.90 13.35L14.90 13.35Q14.20 13.02 13.73 12.47L13.73 12.47L13.73 12.47Q13.26 11.93 13.03 11.24L13.03 11.24L13.03 11.24Q12.80 10.54 12.81 9.82L12.81 9.82L12.81 9.82Q12.82 9.10 13.09 8.41L13.09 8.41L13.09 8.41Q13.36 7.71 13.86 7.18L13.86 7.18L13.86 7.18Q14.42 6.58 15.17 6.33L15.17 6.33L15.17 6.33Q15.92 6.08 16.70 6.08L16.70 6.08L16.70 6.08Q17.57 6.08 18.20 6.37L18.20 6.37L18.20 6.37Q18.83 6.66 19.22 7.12L19.22 7.12L19.22 7.12Q19.61 7.57 19.74 8.13L19.74 8.13L19.74 8.13Q19.87 8.68 19.72 9.20L19.72 9.20L19.72 9.20Q19.57 9.72 19.14 10.13L19.14 10.13L19.14 10.13Q18.70 10.54 17.96 10.72ZM22.76 12.75L22.76 13.52L21 13.52L21 5.17L21 5.17Q21 4.59 21.47 4.17L21.47 4.17L21.47 4.17Q21.94 3.75 22.76 3.72L22.76 3.72L22.76 9.37L22.76 9.37Q22.76 9.84 22.86 10.33L22.86 10.33L22.86 10.33Q22.95 10.81 23.16 11.20L23.16 11.20L23.16 11.20Q23.37 11.59 23.73 11.84L23.73 11.84L23.73 11.84Q24.09 12.08 24.64 12.08L24.64 12.08L24.64 12.08Q25.28 12.08 25.71 11.77L25.71 11.77L25.71 11.77Q26.14 11.47 26.35 11.00L26.35 11.00L26.35 11.00Q26.56 10.54 26.55 10.00L26.55 10.00L26.55 10.00Q26.54 9.45 26.33 8.99L26.33 8.99L26.33 8.99Q26.11 8.53 25.68 8.22L25.68 8.22L25.68 8.22Q25.26 7.91 24.63 7.91L24.63 7.91L24.63 7.91Q24.25 7.91 23.82 8.03L23.82 8.03L23.82 8.03Q23.39 8.15 23.16 8.48L23.16 8.48L23.16 8.48Q23.03 8.26 23.02 7.90L23.02 7.90L23.02 7.90Q23.02 7.53 23.20 7.18L23.20 7.18L23.20 7.18Q23.38 6.83 23.77 6.57L23.77 6.57L23.77 6.57Q24.16 6.30 24.86 6.27L24.86 6.27L24.86 6.27Q25.54 6.26 26.16 6.52L26.16 6.52L26.16 6.52Q26.78 6.79 27.27 7.28L27.27 7.28L27.27 7.28Q27.75 7.77 28.04 8.46L28.04 8.46L28.04 8.46Q28.32 9.16 28.32 9.98L28.32 9.98L28.32 9.98Q28.32 10.84 28.06 11.52L28.06 11.52L28.06 11.52Q27.79 12.19 27.34 12.67L27.34 12.67L27.34 12.67Q26.89 13.15 26.32 13.41L26.32 13.41L26.32 13.41Q25.75 13.68 25.13 13.70L25.13 13.70L25.13 13.70Q24.51 13.72 23.90 13.50L23.90 13.50L23.90 13.50Q23.28 13.27 22.76 12.75L22.76 12.75ZM35.11 6.47L35.11 6.47L35.11 6.47Q34.85 5.95 34.48 5.67L34.48 5.67L34.48 5.67Q34.12 5.39 33.75 5.29L33.75 5.29L33.75 5.29Q33.38 5.19 33.03 5.26L33.03 5.26L33.03 5.26Q32.69 5.33 32.47 5.50L32.47 5.50L32.47 5.50Q32.24 5.67 32.19 5.91L32.19 5.91L32.19 5.91Q32.13 6.15 32.33 6.40L32.33 6.40L32.33 6.40Q32.59 6.73 33.08 7.13L33.08 7.13L33.08 7.13Q33.57 7.53 34.10 7.98L34.10 7.98L34.10 7.98Q34.62 8.43 35.10 8.90L35.10 8.90L35.10 8.90Q35.57 9.38 35.80 9.87L35.80 9.87L35.80 9.87Q36.08 10.50 36.04 11.19L36.04 11.19L36.04 11.19Q35.99 11.89 35.64 12.46L35.64 12.46L35.64 12.46Q35.28 13.03 34.62 13.41L34.62 13.41L34.62 13.41Q33.96 13.78 33.03 13.78L33.03 13.78L33.03 13.78Q32.47 13.78 31.93 13.60L31.93 13.60L31.93 13.60Q31.39 13.43 30.91 13.11L30.91 13.11L30.91 13.11Q30.44 12.80 30.04 12.36L30.04 12.36L30.04 12.36Q29.64 11.93 29.37 11.40L29.37 11.40L30.84 10.32L30.84 10.32Q30.97 10.58 31.16 10.84L31.16 10.84L31.16 10.84Q31.36 11.09 31.60 11.31L31.60 11.31L31.60 11.31Q31.84 11.52 32.09 11.68L32.09 11.68L32.09 11.68Q32.35 11.84 32.59 11.91L32.59 11.91L32.59 11.91Q33.01 12.03 33.38 11.94L33.38 11.94L33.38 11.94Q33.75 11.86 33.96 11.63L33.96 11.63L33.96 11.63Q34.17 11.40 34.17 11.05L34.17 11.05L34.17 11.05Q34.17 10.71 33.85 10.30L33.85 10.30L33.85 10.30Q33.50 9.87 32.91 9.41L32.91 9.41L32.91 9.41Q32.33 8.95 31.75 8.43L31.75 8.43L31.75 8.43Q31.18 7.91 30.76 7.31L30.76 7.31L30.76 7.31Q30.34 6.71 30.34 5.99L30.34 5.99L30.34 5.99Q30.34 5.45 30.56 4.98L30.56 4.98L30.56 4.98Q30.79 4.52 31.16 4.20L31.16 4.20L31.16 4.20Q31.53 3.88 32.02 3.70L32.02 3.70L32.02 3.70Q32.51 3.51 33.04 3.51L33.04 3.51L33.04 3.51Q33.71 3.51 34.29 3.70L34.29 3.70L34.29 3.70Q34.87 3.89 35.24 4.24L35.24 4.24L35.24 4.24Q35.50 4.48 35.64 4.77L35.64 4.77L35.64 4.77Q35.78 5.07 35.78 5.37L35.78 5.37L35.78 5.37Q35.78 5.67 35.62 5.96L35.62 5.96L35.62 5.96Q35.46 6.24 35.11 6.47ZM39.00 3.72L39.00 3.72L39.00 13.52L37.24 13.52L37.24 5.15L37.24 5.15Q37.24 4.48 37.72 4.10L37.72 4.10L37.72 4.10Q38.19 3.71 39.00 3.72ZM40.68 13.52L40.68 7.74L40.68 7.74Q40.71 7.32 40.86 7.04L40.86 7.04L40.86 7.04Q41.01 6.76 41.24 6.59L41.24 6.59L41.24 6.59Q41.48 6.43 41.80 6.35L41.80 6.35L41.80 6.35Q42.11 6.27 42.49 6.27L42.49 6.27L42.49 13.52L40.68 13.52ZM41.59 3.29L41.59 3.29L41.59 3.29Q42.07 3.29 42.41 3.64L42.41 3.64L42.41 3.64Q42.76 3.98 42.76 4.47L42.76 4.47L42.76 4.47Q42.76 4.96 42.42 5.31L42.42 5.31L42.42 5.31Q42.22 5.50 41.97 5.58L41.97 5.58L41.97 5.58Q41.71 5.66 41.45 5.73L41.45 5.73L41.45 5.73Q41.19 5.81 40.97 5.92L40.97 5.92L40.97 5.92Q40.75 6.02 40.67 6.26L40.67 6.26L40.67 6.26Q40.60 6.03 40.52 5.68L40.52 5.68L40.52 5.68Q40.45 5.33 40.42 4.96L40.42 4.96L40.42 4.96Q40.40 4.58 40.47 4.22L40.47 4.22L40.47 4.22Q40.53 3.86 40.77 3.63L40.77 3.63L40.77 3.63Q41.10 3.29 41.59 3.29ZM49.41 13.51L49.41 12.74L49.41 12.74Q48.89 13.24 48.28 13.48L48.28 13.48L48.28 13.48Q47.67 13.71 47.05 13.69L47.05 13.69L47.05 13.69Q46.44 13.66 45.86 13.41L45.86 13.41L45.86 13.41Q45.29 13.15 44.85 12.66L44.85 12.66L44.85 12.66Q44.41 12.18 44.14 11.51L44.14 11.51L44.14 11.51Q43.88 10.84 43.88 9.98L43.88 9.98L43.88 9.98Q43.88 9.16 44.16 8.47L44.16 8.47L44.16 8.47Q44.45 7.78 44.93 7.29L44.93 7.29L44.93 7.29Q45.42 6.79 46.03 6.52L46.03 6.52L46.03 6.52Q46.65 6.26 47.32 6.29L47.32 6.29L47.32 6.29Q48.02 6.31 48.42 6.58L48.42 6.58L48.42 6.58Q48.82 6.85 48.99 7.20L48.99 7.20L48.99 7.20Q49.17 7.55 49.16 7.90L49.16 7.90L49.16 7.90Q49.15 8.26 49.03 8.48L49.03 8.48L49.03 8.48Q48.79 8.15 48.36 8.03L48.36 8.03L48.36 8.03Q47.94 7.91 47.56 7.91L47.56 7.91L47.56 7.91Q46.93 7.91 46.50 8.22L46.50 8.22L46.50 8.22Q46.07 8.53 45.86 8.99L45.86 8.99L45.86 8.99Q45.64 9.45 45.64 9.99L45.64 9.99L45.64 9.99Q45.64 10.53 45.85 10.99L45.85 10.99L45.85 10.99Q46.06 11.45 46.48 11.76L46.48 11.76L46.48 11.76Q46.90 12.07 47.54 12.07L47.54 12.07L47.54 12.07Q48.09 12.07 48.45 11.82L48.45 11.82L48.45 11.82Q48.80 11.58 49.01 11.19L49.01 11.19L49.01 11.19Q49.22 10.79 49.32 10.31L49.32 10.31L49.32 10.31Q49.41 9.83 49.41 9.35L49.41 9.35L49.41 3.74L49.41 3.74Q50.23 3.77 50.70 4.19L50.70 4.19L50.70 4.19Q51.17 4.61 51.17 5.17L51.17 5.17L51.17 13.51L49.41 13.51ZM57.51 10.72L57.51 10.72L57.51 10.72Q56.76 10.92 56.13 10.86L56.13 10.86L56.13 10.86Q55.51 10.81 55.11 10.56L55.11 10.56L55.11 10.56Q54.71 10.32 54.58 9.91L54.58 9.91L54.58 9.91Q54.45 9.49 54.66 8.97L54.66 8.97L54.66 8.97Q55.09 9.34 55.66 9.37L55.66 9.37L55.66 9.37Q56.24 9.41 56.77 9.35L56.77 9.35L56.77 9.35Q57.22 9.31 57.45 9.16L57.45 9.16L57.45 9.16Q57.68 9.00 57.74 8.80L57.74 8.80L57.74 8.80Q57.79 8.60 57.69 8.37L57.69 8.37L57.69 8.37Q57.60 8.15 57.38 7.97L57.38 7.97L57.38 7.97Q57.16 7.78 56.85 7.67L56.85 7.67L56.85 7.67Q56.53 7.56 56.15 7.57L56.15 7.57L56.15 7.57Q55.75 7.60 55.38 7.77L55.38 7.77L55.38 7.77Q55.02 7.94 54.74 8.23L54.74 8.23L54.74 8.23Q54.46 8.53 54.29 8.92L54.29 8.92L54.29 8.92Q54.12 9.31 54.11 9.79L54.11 9.79L54.11 9.79Q54.10 10.18 54.20 10.56L54.20 10.56L54.20 10.56Q54.31 10.93 54.52 11.25L54.52 11.25L54.52 11.25Q54.73 11.56 55.02 11.78L55.02 11.78L55.02 11.78Q55.31 12.00 55.69 12.05L55.69 12.05L55.69 12.05Q56.22 12.15 56.78 11.98L56.78 11.98L56.78 11.98Q57.34 11.82 57.78 11.37L57.78 11.37L59.25 12.08L59.25 12.08Q58.67 12.94 57.89 13.31L57.89 13.31L57.89 13.31Q57.11 13.68 56.10 13.68L56.10 13.68L56.10 13.68Q55.16 13.68 54.45 13.35L54.45 13.35L54.45 13.35Q53.75 13.02 53.28 12.47L53.28 12.47L53.28 12.47Q52.81 11.93 52.58 11.24L52.58 11.24L52.58 11.24Q52.35 10.54 52.36 9.82L52.36 9.82L52.36 9.82Q52.37 9.10 52.64 8.41L52.64 8.41L52.64 8.41Q52.91 7.71 53.41 7.18L53.41 7.18L53.41 7.18Q53.97 6.58 54.72 6.33L54.72 6.33L54.72 6.33Q55.47 6.08 56.25 6.08L56.25 6.08L56.25 6.08Q57.12 6.08 57.75 6.37L57.75 6.37L57.75 6.37Q58.38 6.66 58.77 7.12L58.77 7.12L58.77 7.12Q59.16 7.57 59.29 8.13L59.29 8.13L59.29 8.13Q59.42 8.68 59.27 9.20L59.27 9.20L59.27 9.20Q59.12 9.72 58.69 10.13L58.69 10.13L58.69 10.13Q58.25 10.54 57.51 10.72ZM64.15 8.50L64.15 8.50L64.15 8.50Q64.04 8.23 63.84 8.07L63.84 8.07L63.84 8.07Q63.64 7.91 63.41 7.83L63.41 7.83L63.41 7.83Q63.18 7.74 62.97 7.74L62.97 7.74L62.97 7.74Q62.75 7.73 62.61 7.78L62.61 7.78L62.61 7.78Q62.36 7.87 62.28 8.07L62.28 8.07L62.28 8.07Q62.20 8.27 62.36 8.46L62.36 8.46L62.36 8.46Q62.48 8.60 62.76 8.73L62.76 8.73L62.76 8.73Q63.03 8.86 63.36 9.02L63.36 9.02L63.36 9.02Q63.70 9.18 64.06 9.39L64.06 9.39L64.06 9.39Q64.41 9.59 64.71 9.87L64.71 9.87L64.71 9.87Q65.00 10.15 65.19 10.53L65.19 10.53L65.19 10.53Q65.38 10.91 65.38 11.42L65.38 11.42L65.38 11.42Q65.38 12.03 65.11 12.48L65.11 12.48L65.11 12.48Q64.85 12.94 64.41 13.22L64.41 13.22L64.41 13.22Q63.97 13.50 63.41 13.60L63.41 13.60L63.41 13.60Q62.86 13.71 62.29 13.62L62.29 13.62L62.29 13.62Q61.73 13.54 61.19 13.24L61.19 13.24L61.19 13.24Q60.66 12.94 60.27 12.42L60.27 12.42L61.39 11.21L61.39 11.21Q61.74 11.63 62.13 11.82L62.13 11.82L62.13 11.82Q62.51 12.00 62.84 12.02L62.84 12.02L62.84 12.02Q63.17 12.04 63.39 11.92L63.39 11.92L63.39 11.92Q63.62 11.80 63.67 11.60L63.67 11.60L63.67 11.60Q63.71 11.40 63.55 11.15L63.55 11.15L63.55 11.15Q63.38 10.91 62.90 10.67L62.90 10.67L62.90 10.67Q62.45 10.44 62.03 10.21L62.03 10.21L62.03 10.21Q61.60 9.97 61.27 9.67L61.27 9.67L61.27 9.67Q60.94 9.38 60.74 9.02L60.74 9.02L60.74 9.02Q60.54 8.65 60.54 8.16L60.54 8.16L60.54 8.16Q60.54 7.66 60.75 7.27L60.75 7.27L60.75 7.27Q60.96 6.87 61.31 6.61L61.31 6.61L61.31 6.61Q61.66 6.34 62.10 6.22L62.10 6.22L62.10 6.22Q62.55 6.09 63.03 6.10L63.03 6.10L63.03 6.10Q63.84 6.15 64.27 6.46L64.27 6.46L64.27 6.46Q64.69 6.78 64.80 7.18L64.80 7.18L64.80 7.18Q64.90 7.57 64.73 7.95L64.73 7.95L64.73 7.95Q64.55 8.33 64.15 8.50Z"></path></g><defs data-v-423bf9ae=""><linearGradient data-v-423bf9ae="" gradientTransform="rotate(25)" id="fec34923-acea-4356-a042-9ce3c1ac2433" x1="0%" y1="0%" x2="100%" y2="0%"><stop data-v-423bf9ae="" offset="0%" style="stop-color: rgb(145, 41, 184); stop-opacity: 1;"></stop><stop data-v-423bf9ae="" offset="100%" style="stop-color: rgb(184, 41, 81); stop-opacity: 1;"></stop></linearGradient></defs><g data-v-423bf9ae="" id="53fab04d-9067-4fbf-97b2-28a09a2bef25" transform="matrix(1.3235293626785278,0,0,1.3235293626785278,119.82353210449219,-21.176467895507812)" stroke="none" fill="url(#fec34923-acea-4356-a042-9ce3c1ac2433)"><path d="M7.688 16.004a3 3 0 0 0-2.688 3v35.998a3 3 0 0 0 3 3h11V68a3 3 0 0 0 3 3h11v10A3 3 0 0 0 36 84h56a3 3 0 0 0 3-3V45.002a3 3 0 0 0-3-3H81v-9.999a3 3 0 0 0-3-3H67v-10a3 3 0 0 0-3-2.999H42a3 3 0 0 0-.313 0 3.004 3.004 0 1 0 .313 6h19v7H22a3 3 0 0 0-.313 0 3 3 0 0 0-2.687 3v19.998h-8V22.004h21a3 3 0 1 0 0-6H8a3 3 0 0 0-.313 0zM25 35.003h50v7H36a3 3 0 0 0-.313 0 3 3 0 0 0-2.687 3V65h-8zm14 13h50V78H39zm15.719 4.374a3.42 2.632 0 0 0-3.157 2.625V71a3.42 2.632 0 0 0 5.126 2.28l18-7.999a3.42 2.632 0 0 0 0-4.562l-18-8a3.42 2.632 0 0 0-1.97-.343zm3.718 7.187L66.188 63l-7.75 3.438z"></path></g><!----></svg>